<?xml version="1.0" encoding="UTF-8" standalone="no"?>
<!-- Created with Inkscape (http://www.inkscape.org/) -->

<svg
   version="1.1"
   id="svg1"
   width="768"
   height="384"
   viewBox="0 0 768 384"
   sodipodi:docname="Combining.svg"
   xml:space="preserve"
   inkscape:export-filename="supplementary1.png"
   inkscape:export-xdpi="300"
   inkscape:export-ydpi="300"
   inkscape:version="1.4 (1:1.4+202410161351+e7c3feb100)"
   xmlns:inkscape="http://www.inkscape.org/namespaces/inkscape"
   xmlns:sodipodi="http://sodipodi.sourceforge.net/DTD/sodipodi-0.dtd"
   xmlns="http://www.w3.org/2000/svg"
   xmlns:svg="http://www.w3.org/2000/svg"><defs
     id="defs1"><rect
       x="143.91225"
       y="4.9140767"
       width="33.696526"
       height="15.795246"
       id="rect313" /><rect
       x="37.229754"
       y="13.899108"
       width="417.96604"
       height="338.04616"
       id="rect64" /><rect
       x="25.316233"
       y="350.95248"
       width="418.46243"
       height="11.913521"
       id="rect63" /><clipPath
       clipPathUnits="userSpaceOnUse"
       id="clipPath3"><rect
         style="fill:#d6e5f7;stroke:#c46868"
         id="rect3"
         width="409"
         height="383"
         x="0.5"
         y="0.70201099" /></clipPath><clipPath
       clipPathUnits="userSpaceOnUse"
       id="clipPath5"><rect
         style="fill:#d6e5f7;stroke:#c46868;stroke-width:0.945476"
         id="rect5"
         width="377.05475"
         height="382.05453"
         x="0.47274217"
         y="0.47274217" /></clipPath><clipPath
       clipPathUnits="userSpaceOnUse"
       id="clipPath8"><rect
         style="fill:#d6e5f7;stroke:#c46868;stroke-width:0.985262"
         id="rect8"
         height="383.01483"
         x="0.49262911"
         y="0.49262911"
         width="397.01474" /></clipPath><clipPath
       clipPathUnits="userSpaceOnUse"
       id="clipPath9"><rect
         style="fill:#d6e5f7;stroke:#c46868;stroke-width:2.84486"
         id="rect10"
         width="395.15515"
         height="381.15515"
         x="1.422428"
         y="1.422428" /></clipPath><clipPath
       clipPathUnits="userSpaceOnUse"
       id="clipPath12"><rect
         style="fill:#d6e5f7;stroke:#c46868"
         id="rect12"
         height="384"
         x="0.5"
         y="0.5"
         width="398" /></clipPath><clipPath
       clipPathUnits="userSpaceOnUse"
       id="clipPath13"><rect
         style="fill:#d6e5f7;stroke:#c46868;stroke-width:0.997448"
         id="rect14"
         width="397.00256"
         height="383.00256"
         x="0.4987241"
         y="0.4987241" /></clipPath><clipPath
       clipPathUnits="userSpaceOnUse"
       id="clipPath15"><rect
         style="fill:#d6e5f7;stroke:#c46868;stroke-width:2.14012"
         id="rect16"
         width="395.85986"
         height="381.85989"
         x="1.0700606"
         y="1.0700606" /></clipPath><clipPath
       clipPathUnits="userSpaceOnUse"
       id="clipPath17"><rect
         style="fill:#d6e5f7;stroke:#c46868;stroke-width:2.34387"
         id="rect18"
         width="395.65613"
         height="381.65613"
         x="1.171934"
         y="1.171934" /></clipPath><clipPath
       clipPathUnits="userSpaceOnUse"
       id="clipPath19"><rect
         style="fill:#d6e5f7;stroke:#c46868;stroke-width:2.68852"
         id="rect20"
         width="395.31149"
         height="381.31146"
         x="1.3442603"
         y="1.3442603" /></clipPath><clipPath
       clipPathUnits="userSpaceOnUse"
       id="clipPath21"><rect
         style="fill:#d6e5f7;stroke:#c46868;stroke-width:0.975822"
         id="rect22"
         width="243.02419"
         height="97.024178"
         x="0.48791036"
         y="220.48799" /></clipPath><clipPath
       clipPathUnits="userSpaceOnUse"
       id="clipPath23"><rect
         style="fill:#d6e5f7;stroke:#c46868;stroke-width:0.964787"
         id="rect24"
         width="243.0352"
         height="97.03521"
         x="250.48239"
         y="220.48239" /></clipPath><clipPath
       clipPathUnits="userSpaceOnUse"
       id="clipPath27"><rect
         style="fill:#d6e5f7;stroke:#c46868"
         id="rect27"
         width="63.042381"
         height="45.668499"
         x="352.93808"
         y="153.88298" /></clipPath><clipPath
       clipPathUnits="userSpaceOnUse"
       id="clipPath28"><rect
         style="fill:#d6e5f7;stroke:#c46868;stroke-width:0.957164"
         id="rect29"
         width="80.947914"
         height="44.710835"
         x="215.91116"
         y="157.83275" /></clipPath><clipPath
       clipPathUnits="userSpaceOnUse"
       id="clipPath61"><rect
         style="opacity:0.439;fill:#1a1a1a;fill-opacity:0;stroke:#1a1a1a;stroke-width:0.972414;stroke-opacity:1"
         id="rect62"
         width="239.02759"
         height="95.027588"
         x="240.48621"
         y="250.48621" /></clipPath><clipPath
       clipPathUnits="userSpaceOnUse"
       id="clipPath28-4"><rect
         style="fill:#d6e5f7;stroke:#c46868;stroke-width:0.957164"
         id="rect29-0"
         width="80.947914"
         height="44.710835"
         x="215.91116"
         y="157.83275" /></clipPath><clipPath
       clipPathUnits="userSpaceOnUse"
       id="clipPath27-6"><rect
         style="fill:#d6e5f7;stroke:#c46868"
         id="rect27-7"
         width="63.042381"
         height="45.668499"
         x="352.93808"
         y="153.88298" /></clipPath><clipPath
       clipPathUnits="userSpaceOnUse"
       id="clipPath27-6-8"><rect
         style="fill:#d6e5f7;stroke:#c46868"
         id="rect27-7-3"
         width="63.042381"
         height="45.668499"
         x="352.93808"
         y="153.88298" /></clipPath><clipPath
       clipPathUnits="userSpaceOnUse"
       id="clipPath1"><rect
         style="opacity:0.439;fill:none;stroke:#1a1a1a"
         id="rect2"
         width="75.452301"
         height="43.682911"
         x="511.2886"
         y="135.0199" /></clipPath><clipPath
       clipPathUnits="userSpaceOnUse"
       id="clipPath1-8"><rect
         style="opacity:0.439;fill:none;stroke:#1a1a1a"
         id="rect2-1"
         width="75.452301"
         height="43.682911"
         x="511.2886"
         y="135.0199" /></clipPath><clipPath
       clipPathUnits="userSpaceOnUse"
       id="clipPath4"><rect
         style="opacity:0.439;fill:none;stroke:#1a1a1a"
         id="rect6"
         width="65.027969"
         height="44.179306"
         x="488.45435"
         y="184.16318" /></clipPath><clipPath
       clipPathUnits="userSpaceOnUse"
       id="clipPath11"><rect
         style="opacity:0.439;fill:#0066ff;fill-opacity:0.0745098;stroke:#63bdf6;stroke-opacity:1"
         id="rect13"
         width="77.465721"
         height="45.99527"
         x="508.97397"
         y="49.021275" /></clipPath><clipPath
       clipPathUnits="userSpaceOnUse"
       id="clipPath6"><rect
         style="opacity:0.439;fill:#0066ff;fill-opacity:0.0745098;stroke:#63bdf6;stroke-opacity:1"
         id="rect9"
         width="59.309692"
         height="42.364063"
         x="461.16312"
         y="185.19148" /></clipPath></defs><sodipodi:namedview
     id="namedview1"
     pagecolor="#ffffff"
     bordercolor="#000000"
     borderopacity="0.25"
     inkscape:showpageshadow="2"
     inkscape:pageopacity="0.0"
     inkscape:pagecheckerboard="0"
     inkscape:deskcolor="#d1d1d1"
     showguides="false"
     inkscape:zoom="1.0072589"
     inkscape:cx="611.56074"
     inkscape:cy="122.60999"
     inkscape:window-width="1854"
     inkscape:window-height="1011"
     inkscape:window-x="66"
     inkscape:window-y="32"
     inkscape:window-maximized="1"
     inkscape:current-layer="g1" /><g
     inkscape:groupmode="layer"
     inkscape:label="Image"
     id="g1"><text
       xml:space="preserve"
       style="text-align:start;writing-mode:lr-tb;direction:ltr;text-anchor:start;white-space:pre;inline-size:2.69203;display:inline;fill:#000000;stroke:#c46868"
       x="24.819836"
       y="14.891902"
       id="text29"><tspan
         x="24.819836"
         y="14.891902"
         id="tspan2">A</tspan></text><text
       xml:space="preserve"
       style="font-style:normal;font-variant:normal;font-weight:normal;font-stretch:normal;font-size:8px;font-family:'Latin Modern Sans';-inkscape-font-specification:'Latin Modern Sans';text-align:start;writing-mode:lr-tb;direction:ltr;text-anchor:start;opacity:0.439;fill:#1a1a1a;fill-opacity:0;stroke:#1a1a1a;stroke-opacity:1"
       x="41.200928"
       y="353.93085"
       id="text58"><tspan
         sodipodi:role="line"
         id="tspan58"
         x="41.200928"
         y="353.93085" /></text><text
       xml:space="preserve"
       id="text62"
       style="font-style:normal;font-variant:normal;font-weight:normal;font-stretch:normal;font-size:5.33333px;font-family:Ubuntu;-inkscape-font-specification:Ubuntu;text-align:start;writing-mode:lr-tb;direction:ltr;white-space:pre;shape-inside:url(#rect63);display:inline;opacity:0.439;fill:#1a1a1a;fill-opacity:0;stroke:#1a1a1a;stroke-opacity:1" /><text
       xml:space="preserve"
       id="text63"
       style="font-style:normal;font-variant:normal;font-weight:normal;font-stretch:normal;font-size:5.33333px;font-family:Ubuntu;-inkscape-font-specification:Ubuntu;text-align:start;writing-mode:lr-tb;direction:ltr;white-space:pre;shape-inside:url(#rect64);display:inline;opacity:0.439;fill:#1a1a1a;fill-opacity:0;stroke:#1a1a1a;stroke-opacity:1" /><g
       id="g19"
       transform="translate(50.000002)"
       inkscape:export-filename="combining.png"
       inkscape:export-xdpi="390"
       inkscape:export-ydpi="390"><ellipse
         style="opacity:0.439;fill:#0066ff;fill-opacity:0.0745098;stroke:#63bdf6;stroke-width:0.976948"
         id="path1"
         cx="83.333328"
         cy="91.666664"
         rx="32.844856"
         ry="32.84486" /><circle
         style="opacity:0.439;fill:#0066ff;fill-opacity:0.0745098;stroke:#63bdf6;stroke-width:0.976952"
         id="path1-3"
         cx="116.66666"
         cy="91.666664"
         r="32.844856" /><circle
         style="opacity:0.439;fill:#0066ff;fill-opacity:0.0745098;stroke:#63bdf6;stroke-width:0.976952"
         id="path1-3-0"
         cx="100"
         cy="58.333332"
         r="32.844856" /></g><ellipse
       style="opacity:0.439;fill:#0066ff;fill-opacity:0.0745098;stroke:#63bdf6;stroke-width:0.976948"
       id="path1-7"
       cx="258.33334"
       cy="91.666664"
       rx="32.844856"
       ry="32.84486" /><circle
       style="opacity:0.439;fill:#0066ff;fill-opacity:0.0745098;stroke:#63bdf6;stroke-width:0.976952"
       id="path1-3-8"
       cx="291.66666"
       cy="91.666664"
       r="32.844856" /><circle
       style="opacity:0.439;fill:#0066ff;fill-opacity:0.0745098;stroke:#63bdf6;stroke-width:0.976952"
       id="path1-3-0-2"
       cx="275"
       cy="58.333332"
       r="32.844856" /><ellipse
       style="opacity:0.439;fill:#0066ff;fill-opacity:0.0745098;stroke:#63bdf6;stroke-width:0.976948"
       id="path1-5"
       cx="383.33334"
       cy="92.858658"
       rx="32.844856"
       ry="32.84486" /><circle
       style="opacity:0.439;fill:#0066ff;fill-opacity:0.0745098;stroke:#63bdf6;stroke-width:0.976952"
       id="path1-3-5"
       cx="416.66675"
       cy="92.858658"
       r="32.844856" /><circle
       style="opacity:0.439;fill:#0066ff;fill-opacity:0.0745098;stroke:#63bdf6;stroke-width:0.976952"
       id="path1-3-0-0"
       cx="400.00006"
       cy="59.52533"
       r="32.844856" /><ellipse
       style="opacity:0.439;fill:#0066ff;fill-opacity:0.0745098;stroke:#63bdf6;stroke-width:0.976948"
       id="path1-30"
       cx="508.33362"
       cy="92.858673"
       rx="32.844856"
       ry="32.84486" /><circle
       style="opacity:0.439;fill:#0066ff;fill-opacity:0.0745098;stroke:#63bdf6;stroke-width:0.976952"
       id="path1-3-7"
       cx="541.6651"
       cy="92.858673"
       r="32.844856" /><circle
       style="opacity:0.439;fill:#0066ff;fill-opacity:0.0745098;stroke:#63bdf6;stroke-width:0.976952"
       id="path1-3-0-7"
       cx="524.99908"
       cy="59.52533"
       r="32.844856" /><ellipse
       style="opacity:0.439;fill:#0066ff;fill-opacity:0.0745098;stroke:#63bdf6;stroke-width:0.976948"
       id="path1-1"
       cx="633.33099"
       cy="92.858673"
       rx="32.844856"
       ry="32.84486" /><circle
       style="opacity:0.439;fill:#0066ff;fill-opacity:0.0745098;stroke:#63bdf6;stroke-width:0.976952"
       id="path1-3-9"
       cx="666.66412"
       cy="92.858673"
       r="32.844856" /><circle
       style="opacity:0.439;fill:#0066ff;fill-opacity:0.0745098;stroke:#63bdf6;stroke-width:0.976952"
       id="path1-3-0-08"
       cx="649.99756"
       cy="59.52533"
       r="32.844856" /><path
       style="opacity:0.439;fill:#488bbf;fill-opacity:0.756138;stroke:none;stroke-width:0.351005;stroke-linejoin:bevel;stroke-opacity:1;paint-order:fill markers stroke"
       d="m 143.36746,89.837844 c -2.49906,-0.536998 -6.94798,-2.137495 -7.92259,-2.850147 -0.55835,-0.408278 -0.57449,-0.64149 -0.17132,-2.47607 1.58295,-7.20315 6.48853,-14.592141 12.5846,-18.955457 l 2.20914,-1.581221 2.68889,2.060057 c 5.6228,4.307828 9.95074,10.805655 11.73569,17.619576 0.65455,2.498703 0.69276,2.96975 0.2631,3.242964 -1.36081,0.865295 -5.71112,2.434794 -8.12226,2.930331 -3.32993,0.684368 -10.10307,0.689457 -13.26525,0.01 z"
       id="path291" /><path
       style="opacity:0.439;fill:#488bbf;fill-opacity:0.756138;stroke:none;stroke-width:0.351005;stroke-linejoin:bevel;stroke-opacity:1;paint-order:fill markers stroke"
       d="m 131.25777,84.523302 c -5.80928,-4.237344 -10.63784,-11.184336 -12.27247,-17.656759 -0.31692,-1.254844 -0.65843,-2.560841 -0.75891,-2.902214 -0.14279,-0.48507 0.30221,-0.847589 2.03677,-1.659242 4.22767,-1.978261 7.2659,-2.581667 13.10064,-2.601845 5.80033,-0.02006 8.41333,0.500829 13.04312,2.600075 l 2.31042,1.047596 -2.06068,1.531525 c -2.70573,2.010934 -6.34093,5.847387 -8.03298,8.477707 -1.79735,2.794028 -3.8764,7.631639 -4.42841,10.304234 -0.24498,1.186053 -0.61125,2.152544 -0.81394,2.147758 -0.20269,-0.0048 -1.15829,-0.584762 -2.12356,-1.288835 z"
       id="path292" /><path
       style="opacity:0.439;fill:#488bbf;fill-opacity:0.756138;stroke:none;stroke-width:0.351005;stroke-linejoin:bevel;stroke-opacity:1;paint-order:fill markers stroke"
       d="m 149.49689,62.357836 c -0.75583,-0.683292 -6.48665,-2.841928 -9.11298,-3.4326 -5.97867,-1.344628 -14.11903,-0.605764 -19.83584,1.800411 -1.17332,0.493843 -2.28422,0.80463 -2.46866,0.690638 -0.18444,-0.113993 -0.33535,-1.2132 -0.33535,-2.442682 0,-6.069748 1.83763,-12.592588 4.94835,-17.56461 10.85935,-17.357072 34.57716,-20.406478 49.37668,-6.348377 5.83237,5.540182 9.01301,11.994283 9.94357,20.17732 0.18944,1.665935 0.24311,3.841039 0.11925,4.833564 l -0.2252,1.804591 -2.26016,-1.024807 c -3.98797,-1.808233 -7.77252,-2.533298 -13.11273,-2.512209 -3.89087,0.01536 -5.33583,0.175848 -8.07716,0.897083 -2.61817,0.688833 -6.66085,2.278728 -8.43326,3.316616 -0.10377,0.06076 -0.34069,-0.02696 -0.52651,-0.194938 z"
       id="path293" /><path
       style="opacity:0.439;fill:#488bbf;fill-opacity:0.756138;stroke:none;stroke-width:0.351005;stroke-linejoin:bevel;stroke-opacity:1;paint-order:fill markers stroke"
       d="m 165.73658,83.443592 c -1.59025,-6.997104 -7.10661,-15.082926 -12.98555,-19.034087 -0.71811,-0.482632 -1.30498,-0.95649 -1.30416,-1.053016 0.003,-0.314193 4.40653,-2.066091 7.23596,-2.878537 2.33582,-0.670713 3.57286,-0.790111 8.02649,-0.77471 5.73858,0.01984 8.63366,0.577986 12.87803,2.482748 l 2.11722,0.950148 -0.20566,1.500418 c -0.34387,2.508824 -2.00795,7.061343 -3.48672,9.538829 -2.69827,4.5206 -6.90156,8.947206 -10.78686,11.35996 l -0.88802,0.551454 z"
       id="path294" /><path
       style="opacity:0.439;fill:#488bbf;fill-opacity:0.756138;stroke:none;stroke-width:0.351005;stroke-linejoin:bevel;stroke-opacity:1;paint-order:fill markers stroke"
       d="m 160.25244,123.18665 c -2.71586,-0.58915 -6.11028,-1.72109 -7.69983,-2.56766 l -1.16951,-0.62287 1.87152,-1.42061 c 3.9102,-2.96811 7.25023,-6.82789 9.56777,-11.05665 2.67702,-4.88468 4.40718,-12.681453 3.94584,-17.781494 l -0.21139,-2.337002 1.80552,-1.053017 c 0.99304,-0.579159 3.18148,-2.395612 4.8632,-4.036563 4.58375,-4.472628 7.5687,-9.493559 9.08458,-15.281058 0.39355,-1.502503 0.7691,-2.785389 0.83457,-2.850857 0.29173,-0.291727 3.79185,2.375621 6.05807,4.616687 4.13991,4.093958 7.08265,9.121249 8.6303,14.743748 0.64431,2.340751 0.77197,3.713422 0.76712,8.248628 -0.005,4.886721 -0.10145,5.75462 -0.94522,8.525338 -3.62157,11.89219 -12.79408,20.44148 -24.52501,22.85868 -3.31041,0.68213 -9.76689,0.68949 -12.87753,0.0147 z"
       id="path295" /><path
       style="opacity:0.439;fill:#488bbf;fill-opacity:0.756138;stroke:none;stroke-width:0.351005;stroke-linejoin:bevel;stroke-opacity:1;paint-order:fill markers stroke"
       d="m 148.08007,117.93728 c -2.42216,-1.72177 -5.91932,-5.23205 -7.6927,-7.72156 -3.92099,-5.50439 -5.79505,-11.496725 -5.79505,-18.529807 0,-3.184364 0.0527,-3.460381 0.61426,-3.217784 9.45208,4.08328 19.15304,4.333951 27.74661,0.716968 1.1855,-0.498971 2.26015,-0.90722 2.38812,-0.90722 0.4874,0 -0.17074,8.985524 -0.83555,11.407678 -1.42753,5.201095 -3.9616,9.836905 -7.43479,13.601175 -2.04018,2.21116 -6.42326,5.87963 -7.02497,5.87963 -0.13028,0 -1.01495,-0.55309 -1.96593,-1.22908 z"
       id="path296" /><path
       style="opacity:0.439;fill:#488bbf;fill-opacity:0.756138;stroke:none;stroke-width:0.351005;stroke-linejoin:bevel;stroke-opacity:1;paint-order:fill markers stroke"
       d="m 126.8702,123.22321 c -6.3273,-1.33629 -11.14504,-3.98341 -16.00765,-8.79542 -6.58291,-6.51444 -9.61575,-13.71047 -9.61575,-22.81536 0,-8.269273 2.84298,-15.586793 8.42064,-21.673824 1.91317,-2.087891 6.46941,-5.867929 7.08347,-5.876732 0.12945,-0.0019 0.33793,0.509971 0.4633,1.137393 1.5854,7.934424 6.89154,15.889589 13.79559,20.682875 l 2.20908,1.533694 0.10005,4.730838 c 0.11639,5.503239 0.90145,9.035156 3.01132,13.547686 2.4662,5.27461 6.50967,10.22461 10.71333,13.11517 l 1.74558,1.20032 -2.17049,0.97721 c -4.21794,1.89901 -6.88565,2.45785 -12.37735,2.59286 -3.42449,0.0842 -5.836,-0.0325 -7.37112,-0.35671 z"
       id="path297" /><path
       style="opacity:0.439;fill:#488bbf;fill-opacity:0.756138;stroke:none;stroke-width:0.351005;stroke-linejoin:bevel;stroke-opacity:1;paint-order:fill markers stroke"
       d="m 256.74223,84.858906 c -2.75239,-1.762698 -6.93077,-6.127589 -8.91233,-9.31016 -1.86571,-2.996509 -3.45392,-6.788086 -4.22135,-10.077774 l -0.49739,-2.132122 1.70578,-0.864386 c 0.93818,-0.475413 3.09695,-1.287997 4.79725,-1.805743 2.76697,-0.842544 3.66256,-0.943205 8.53206,-0.958957 5.80319,-0.01877 7.56661,0.288801 12.28519,2.142769 3.41781,1.342886 3.42521,1.362948 1.13147,3.066978 -4.17399,3.100884 -8.33093,8.28396 -10.40467,12.97306 -0.8843,1.999546 -2.15718,5.995172 -2.37372,7.451221 -0.10742,0.722278 -0.18677,0.70344 -2.04229,-0.484886 z"
       id="path302" /><path
       style="opacity:0.439;fill:#488bbf;fill-opacity:0.756138;stroke:none;stroke-width:0.351005;stroke-linejoin:bevel;stroke-opacity:1;paint-order:fill markers stroke"
       d="m 268.1499,89.801302 c -2.19843,-0.470082 -6.58773,-2.085235 -7.84824,-2.887964 -1.15723,-0.736951 1.67011,-8.696263 4.67898,-13.171934 2.14174,-3.185826 6.49788,-7.55445 8.85239,-8.877757 l 1.35228,-0.760027 2.47069,1.869379 c 5.98184,4.526008 9.99724,10.643607 11.99981,18.282091 0.59606,2.273565 0.59429,2.324733 -0.0946,2.731123 -1.59072,0.938442 -5.50157,2.328875 -8.0046,2.845889 -3.35802,0.693618 -10.09118,0.67815 -13.40674,-0.0308 z"
       id="path303" /><path
       style="opacity:0.439;fill:#488bbf;fill-opacity:0.756138;stroke:none;stroke-width:0.351005;stroke-linejoin:bevel;stroke-opacity:1;paint-order:fill markers stroke"
       d="m 290.89764,83.970846 c -1.45914,-6.956484 -6.3723,-14.448278 -12.4969,-19.055798 l -2.03436,-1.530441 1.75093,-0.887265 c 0.96302,-0.487995 3.1421,-1.310875 4.8424,-1.828621 2.77831,-0.845998 3.6426,-0.941947 8.53206,-0.947173 6.00873,-0.0064 8.96224,0.564928 13.22044,2.557473 l 2.16378,1.012496 -0.33223,1.524259 c -1.1741,5.386715 -3.86903,10.735629 -7.48262,14.851569 -1.867,2.126542 -6.73154,6.153494 -7.43339,6.153494 -0.18814,0 -0.51669,-0.832497 -0.73011,-1.849993 z"
       id="path304" /><path
       style="opacity:0.439;fill:#488bbf;fill-opacity:0.756138;stroke:none;stroke-width:0.351005;stroke-linejoin:bevel;stroke-opacity:1;paint-order:fill markers stroke"
       d="m 272.50207,117.44741 c -5.92933,-4.53769 -10.14466,-10.70892 -11.94562,-17.488337 -0.68226,-2.568273 -1.38734,-11.681196 -0.90379,-11.681196 0.10757,0 1.42821,0.493574 2.93478,1.09683 5.72964,2.29426 12.50082,2.979992 18.39151,1.862547 2.4313,-0.461211 5.67814,-1.483471 8.89322,-2.80002 0.63448,-0.259812 0.65409,-0.07578 0.47264,4.435615 -0.33827,8.410311 -3.08871,15.035301 -8.63568,20.800771 -1.89576,1.97044 -6.20161,5.49274 -6.71462,5.49274 -0.13547,0 -1.25707,-0.77353 -2.49244,-1.71895 z"
       id="path305" /><path
       style="opacity:0.439;fill:#488bbf;fill-opacity:0.756138;stroke:none;stroke-width:0.351005;stroke-linejoin:bevel;stroke-opacity:1;paint-order:fill markers stroke"
       d="m 394.01131,91.19418 c -2.07953,-0.408 -4.68035,-1.26065 -7.14063,-2.34097 -2.01962,-0.88683 -2.02411,-0.8922 -1.804,-2.15452 0.40929,-2.3473 1.93384,-6.51408 3.3429,-9.13654 2.37945,-4.42848 5.6634,-8.15718 9.56565,-10.86111 l 2.05978,-1.42726 1.57976,1.0869 c 4.5284,3.11562 8.97981,8.52651 11.16092,13.56659 1.30279,3.0105 2.44675,7.17038 2.17011,7.89132 -0.25414,0.66229 -5.17387,2.53735 -8.39764,3.2006 -2.92241,0.60125 -9.86995,0.69822 -12.53685,0.17499 z"
       id="path306" /><path
       style="opacity:0.439;fill:#488bbf;fill-opacity:0.756138;stroke:none;stroke-width:0.351005;stroke-linejoin:bevel;stroke-opacity:1;paint-order:fill markers stroke"
       d="m 505.57993,85.10865 c -5.5841,-4.19547 -9.61697,-10.08557 -11.56178,-16.8862 -1.09181,-3.81785 -1.10222,-3.79158 2.01805,-5.09055 4.38478,-1.82539 8.62884,-2.55171 13.60498,-2.32835 4.42164,0.19848 6.86685,0.70431 10.79793,2.23373 3.20004,1.245 3.39401,1.55228 1.69122,2.67914 -6.18725,4.09452 -11.43852,12.15312 -13.25011,20.33359 l -0.29205,1.3188 z"
       id="path307" /><path
       style="opacity:0.439;fill:#488bbf;fill-opacity:0.756138;stroke:none;stroke-width:0.351005;stroke-linejoin:bevel;stroke-opacity:1;paint-order:fill markers stroke"
       d="m 522.80389,118.91352 c -6.12455,-4.57381 -10.43358,-10.90247 -12.31518,-18.08725 -0.6721,-2.56636 -1.39489,-11.35649 -0.93382,-11.35649 0.10524,0 1.61806,0.551 3.36182,1.22444 7.99733,3.08857 17.73836,2.94836 25.22617,-0.36311 1.0825,-0.47873 2.03976,-0.79885 2.12724,-0.71137 0.3082,0.3082 0.12128,6.83516 -0.25521,8.91134 -1.49944,8.26895 -6.69465,16.30111 -13.49253,20.86041 -0.79032,0.53007 -1.51593,0.96376 -1.61246,0.96376 -0.0965,-1e-5 -1.04424,-0.64878 -2.10603,-1.44173 z"
       id="path308" /><path
       style="opacity:0.439;fill:#488bbf;fill-opacity:0.756138;stroke:none;stroke-width:0.351005;stroke-linejoin:bevel;stroke-opacity:1;paint-order:fill markers stroke"
       d="m 541.25531,86.57398 c -0.0714,-0.24131 -0.3977,-1.46545 -0.72508,-2.72029 -0.79862,-3.06113 -2.97235,-7.65472 -4.87391,-10.29974 -1.88009,-2.61512 -5.78544,-6.53106 -7.92158,-7.94305 l -1.56275,-1.03297 2.26476,-1.05975 c 4.28321,-2.00425 7.29393,-2.60352 13.14593,-2.61661 5.69571,-0.0127 7.31661,0.28452 12.55882,2.30327 l 2.73066,1.05157 -0.23314,1.28676 c -0.77292,4.26602 -3.38563,10.04498 -6.17835,13.66569 -1.65793,2.14948 -4.8891,5.21393 -7.10544,6.73881 -1.73637,1.19465 -1.91589,1.24819 -2.09992,0.62631 z"
       id="path309" /><path
       style="opacity:0.439;fill:#488bbf;fill-opacity:0.756138;stroke:none;stroke-width:0.351005;stroke-linejoin:bevel;stroke-opacity:1;paint-order:fill markers stroke"
       d="m 648.374,62.92416 c -5.32362,-2.70553 -12.56007,-4.0178 -18.45781,-3.34716 -3.54266,0.40284 -8.27424,1.69417 -10.67355,2.91298 l -1.31627,0.66866 v -3.70749 c 0,-8.84589 3.51906,-17.1583 9.75399,-23.04002 3.06666,-2.89293 4.91444,-4.16772 8.58275,-5.9213 12.17815,-5.82157 26.92555,-3.27634 36.44058,6.28924 5.99136,6.02318 8.99252,13.03052 9.36173,21.85851 l 0.18586,4.44385 -2.95405,-1.18611 c -8.92793,-3.58475 -19.0858,-3.24974 -27.32563,0.9012 l -1.93284,0.9737 z"
       id="path310" /><path
       style="opacity:0.439;fill:#488bbf;fill-opacity:0.756138;stroke:none;stroke-width:0.351005;stroke-linejoin:bevel;stroke-opacity:1;paint-order:fill markers stroke"
       d="m 626.70151,124.39639 c -10.41121,-2.32833 -19.20979,-9.70216 -23.16046,-19.41008 -1.68133,-4.13152 -2.29102,-7.47121 -2.25594,-12.35748 0.0616,-8.57409 3.05112,-16.03596 8.81226,-21.99509 2.36576,-2.44706 6.43598,-5.53628 6.76364,-5.13348 0.12377,0.15216 0.50467,1.38232 0.84644,2.73369 1.86806,7.38646 7.54883,15.22838 13.97812,19.29585 l 1.61573,1.02218 -0.009,4.05671 c -0.0205,9.76284 3.51773,18.02868 10.56175,24.67366 1.33428,1.25868 2.91722,2.57871 3.51765,2.9334 0.60043,0.35468 1.09169,0.7472 1.09169,0.87226 0,0.3261 -3.61691,1.88329 -6.4936,2.7957 -3.20081,1.01522 -11.73963,1.30192 -15.26874,0.51268 z"
       id="path311" /><path
       style="opacity:0.439;fill:#488bbf;fill-opacity:0.756138;stroke:none;stroke-width:0.351005;stroke-linejoin:bevel;stroke-opacity:1;paint-order:fill markers stroke"
       d="m 659.87153,124.36043 c -2.64988,-0.59191 -7.98022,-2.66551 -8.14347,-3.16796 -0.055,-0.16924 0.48111,-0.70258 1.19133,-1.18522 3.98166,-2.70576 8.28526,-7.88287 10.62104,-12.77681 2.12846,-4.45955 2.8569,-7.67126 3.07294,-13.5486 l 0.18708,-5.08958 2.1925,-1.49826 c 6.41112,-4.3811 11.63613,-11.90388 13.41957,-19.321 0.31039,-1.2909 0.61471,-2.41005 0.67625,-2.48699 0.22577,-0.28225 3.15762,1.96068 5.68668,4.35043 6.78373,6.41006 10.0202,14.11274 9.95579,23.6944 -0.0943,14.03393 -9.04341,25.90499 -22.88896,30.36252 -2.58412,0.83195 -3.68842,0.97763 -8.24863,1.08822 -3.88811,0.0943 -5.90767,-0.0159 -7.72212,-0.42115 z"
       id="path312" /><text
       xml:space="preserve"
       id="text313"
       style="font-size:5.33333px;font-family:Ubuntu;-inkscape-font-specification:Ubuntu;text-align:start;writing-mode:lr-tb;direction:ltr;white-space:pre;shape-inside:url(#rect313);display:inline;opacity:0.439;fill:#488bbf;fill-opacity:0.756138;stroke:none;stroke-linejoin:bevel;stroke-opacity:1;paint-order:fill markers stroke" /><text
       xml:space="preserve"
       style="font-size:8px;text-align:start;writing-mode:lr-tb;direction:ltr;text-anchor:start;white-space:pre;inline-size:0;mix-blend-mode:normal;fill:#000000;stroke:#1a1a1a;fill-opacity:0"
       x="4.5"
       y="26.236"
       id="text54"
       transform="translate(134.309,-5.6480001)"
       inkscape:export-filename="figure3.png"
       inkscape:export-xdpi="390"
       inkscape:export-ydpi="390"
       inkscape:transform-center-x="-0.35100548"
       inkscape:transform-center-y="-1.4040219"><tspan
         id="tspan54"
         x="4.5"
         y="26.236"
         style="fill:#000000;fill-opacity:0">Union</tspan></text><text
       xml:space="preserve"
       style="font-size:8px;text-align:start;writing-mode:lr-tb;direction:ltr;text-anchor:start;white-space:pre;inline-size:0;mix-blend-mode:normal;fill:#000000;stroke:#1a1a1a"
       x="4.5"
       y="26.236"
       id="text54-84"
       transform="translate(636.46955,-5.6480001)"
       inkscape:export-filename="figure3.png"
       inkscape:export-xdpi="390"
       inkscape:export-ydpi="390"
       inkscape:transform-center-x="-0.35100548"
       inkscape:transform-center-y="-1.4040219"><tspan
         id="tspan54-8"
         x="4.5"
         y="26.236">Uniq</tspan></text><text
       xml:space="preserve"
       style="font-size:8px;text-align:start;writing-mode:lr-tb;direction:ltr;text-anchor:start;white-space:pre;inline-size:0;mix-blend-mode:normal;fill:#000000;stroke:#1a1a1a"
       x="4.5"
       y="26.236"
       id="text54-5"
       transform="translate(506.51155,-5.4640001)"
       inkscape:export-filename="figure3.png"
       inkscape:export-xdpi="390"
       inkscape:export-ydpi="390"
       inkscape:transform-center-x="-0.35100548"
       inkscape:transform-center-y="-1.4040219"><tspan
         id="tspan54-24"
         x="4.5"
         y="26.236">Double</tspan></text><text
       xml:space="preserve"
       style="font-size:8px;text-align:start;writing-mode:lr-tb;direction:ltr;text-anchor:start;white-space:pre;inline-size:0;mix-blend-mode:normal;fill:#000000;stroke:#1a1a1a"
       x="4.5"
       y="26.236"
       id="text54-3"
       transform="translate(378.73555,-5.8320001)"
       inkscape:export-filename="figure3.png"
       inkscape:export-xdpi="390"
       inkscape:export-ydpi="390"
       inkscape:transform-center-x="-0.35100548"
       inkscape:transform-center-y="-1.4040219"><tspan
         id="tspan54-27"
         x="4.5"
         y="26.236">Intersect</tspan></text><text
       xml:space="preserve"
       style="font-size:8px;text-align:start;writing-mode:lr-tb;direction:ltr;text-anchor:start;white-space:pre;inline-size:0;mix-blend-mode:normal;fill:#000000;stroke:#1a1a1a"
       x="4.5"
       y="26.236"
       id="text54-6"
       transform="translate(255.704,-5.8320001)"
       inkscape:export-filename="figure3.png"
       inkscape:export-xdpi="390"
       inkscape:export-ydpi="390"
       inkscape:transform-center-x="-0.35100548"
       inkscape:transform-center-y="-1.4040219"><tspan
         id="tspan54-2"
         x="4.5"
         y="26.236">Rosette</tspan></text><text
       xml:space="preserve"
       style="font-size:5.33333px;font-family:Ubuntu;-inkscape-font-specification:Ubuntu;text-align:start;writing-mode:lr-tb;direction:ltr;text-anchor:start;opacity:0.439;fill:#488bbf;fill-opacity:0.756138;stroke:none;stroke-linejoin:bevel;stroke-opacity:1;paint-order:fill markers stroke"
       x="105.65265"
       y="145.66727"
       id="text314"><tspan
         sodipodi:role="line"
         id="tspan314"></tspan></text></g><text
     xml:space="preserve"
     style="font-style:normal;font-variant:normal;font-weight:normal;font-stretch:normal;font-size:5.33333px;font-family:Ubuntu;-inkscape-font-specification:Ubuntu;text-align:start;writing-mode:lr-tb;direction:ltr;text-anchor:start;opacity:0.439;fill:#1a1a1a;fill-opacity:0;stroke:#1a1a1a;stroke-opacity:1"
     x="336.55698"
     y="370.31195"
     id="text59"><tspan
       sodipodi:role="line"
       id="tspan59"
       x="336.55698"
       y="370.31195" /></text></svg>
